<?xml version="1.0" standalone="no"?>
<!DOCTYPE svg PUBLIC "-//W3C//DTD SVG 20010904//EN"
 "http://www.w3.org/TR/2001/REC-SVG-20010904/DTD/svg10.dtd">
<svg version="1.0" xmlns="http://www.w3.org/2000/svg"
 width="512.000000pt" height="512.000000pt" viewBox="0 0 512.000000 512.000000"
 preserveAspectRatio="xMidYMid meet">

<g transform="translate(0.000000,512.000000) scale(0.100000,-0.100000)"
fill="#000000" stroke="none">
<path d="M2155 5006 c-17 -7 -473 -268 -1015 -580 -782 -451 -994 -577 -1028
-613 -78 -83 -76 -48 -69 -964 3 -550 8 -813 16 -827 8 -16 92 -72 107 -72 2
0 -1 12 -6 26 -6 14 -10 58 -10 97 0 58 3 74 17 83 10 6 326 189 703 406 377
218 867 501 1090 630 l405 234 3 738 c1 492 -1 743 -8 756 -10 19 -145 100
-165 99 -5 0 -24 -6 -40 -13z m144 -863 l1 -643 -37 -24 c-73 -47 -2015 -1166
-2024 -1166 -5 0 -9 260 -9 658 l0 658 28 44 c26 41 89 79 1027 621 l1000 577
7 -42 c3 -22 7 -330 7 -683z"/>
<path d="M1751 3828 c-10 -24 -69 -157 -130 -296 -61 -139 -111 -255 -111
-258 0 -2 20 -4 44 -4 69 0 168 36 249 90 111 74 285 267 261 289 -5 5 -73 57
-152 115 l-143 106 -18 -42z"/>
<path d="M4170 3130 l0 -612 29 -28 c60 -61 196 -75 294 -32 80 36 75 -6 79
673 l3 607 -32 -29 c-40 -34 -89 -49 -168 -49 -80 0 -128 15 -170 52 l-35 30
0 -612z"/>
<path d="M5043 3420 c-39 -35 -89 -50 -168 -50 -76 0 -126 14 -163 45 l-29 24
-7 -106 c-3 -58 -6 -330 -6 -603 0 -483 1 -498 20 -523 66 -83 309 -80 363 5
13 19 16 117 20 631 2 334 4 607 3 607 0 0 -15 -14 -33 -30z"/>
<path d="M3012 3064 c-45 -31 -15 -114 42 -114 25 0 66 41 66 65 0 23 -41 65
-64 65 -12 0 -32 -7 -44 -16z"/>
<path d="M1563 2683 c-8 -6 -13 -46 -15 -118 l-3 -109 -195 -113 c-107 -62
-202 -113 -210 -113 -8 0 -29 9 -47 20 -30 18 -32 24 -35 79 l-3 59 -122 -71
-123 -72 0 -63 c0 -37 6 -75 15 -92 74 -144 493 -53 855 185 99 65 173 136
190 181 14 35 13 137 -1 168 -20 42 -72 60 -189 64 -58 1 -110 -1 -117 -5z"/>
<path d="M2588 1924 c-16 -5 -16 -10 7 -53 53 -105 115 -147 173 -117 49 25
135 146 117 164 -8 8 -272 13 -297 6z"/>
<path d="M2435 1891 c-412 -120 -478 -446 -125 -619 145 -72 216 -86 425 -86
208 1 282 15 422 84 301 148 301 425 0 569 -75 36 -183 71 -220 71 -8 0 -26
-24 -40 -53 -29 -59 -76 -111 -120 -134 -65 -33 -148 17 -206 127 -36 68 -40
69 -136 41z"/>
<path d="M3336 1046 c16 -41 -51 -86 -126 -86 -38 0 -40 -2 -40 -30 0 -30 0
-30 60 -30 115 0 220 62 220 131 0 29 0 29 -60 29 -47 0 -58 -3 -54 -14z"/>
<path d="M330 796 l0 -76 44 0 c38 0 48 4 65 29 l21 29 -37 30 c-21 16 -50 37
-65 47 l-28 17 0 -76z"/>
<path d="M1458 833 l-47 -36 25 -30 c13 -15 24 -33 24 -38 0 -5 14 -9 30 -9
l30 0 0 75 c0 41 -3 75 -7 74 -5 0 -29 -17 -55 -36z"/>
<path d="M820 806 c-73 -16 -144 -51 -174 -87 -31 -36 -43 -92 -27 -126 l11
-25 34 30 c62 54 136 76 261 76 124 0 199 -22 260 -76 33 -28 34 -28 44 -9 72
134 -179 267 -409 217z"/>
<path d="M2555 800 c-4 -6 2 -27 12 -48 24 -49 100 -88 189 -97 36 -4 67 -5
69 -3 3 2 8 19 11 38 7 32 6 33 -19 26 -63 -15 -168 40 -153 80 4 11 -7 14
-49 14 -29 0 -57 -5 -60 -10z"/>
<path d="M200 506 l0 -53 96 -6 c107 -6 133 2 135 43 1 17 3 19 6 8 5 -20 18
-23 28 -8 8 13 -14 42 -26 34 -5 -3 -8 0 -7 8 3 13 -69 24 -179 27 l-53 1 0
-54z"/>
<path d="M1508 553 l-48 -4 0 -56 0 -56 46 7 c26 3 69 6 95 6 l49 0 0 55 0 55
-47 -2 c-27 -1 -69 -3 -95 -5z"/>
<path d="M1422 507 l-23 -25 23 -16 c22 -16 23 -16 26 4 2 11 2 29 0 41 -3 20
-4 20 -26 -4z"/>
<path d="M330 326 l0 -54 79 -45 c76 -43 80 -44 84 -23 4 20 4 20 6 -1 0 -13
3 -23 5 -23 2 0 43 18 92 41 82 38 92 40 132 31 l43 -9 -3 55 c-3 56 -3 56
-40 65 -32 8 -49 3 -127 -32 -50 -23 -96 -41 -102 -41 -6 0 -37 15 -68 34
-108 65 -101 64 -101 2z"/>
<path d="M1438 334 l-78 -46 0 -55 0 -55 48 28 c126 73 122 69 122 124 0 28
-3 50 -7 50 -5 -1 -43 -21 -85 -46z"/>
<path d="M1108 353 c-27 -4 -28 -7 -28 -59 0 -59 5 -63 66 -45 26 7 46 3 118
-30 l86 -38 0 53 0 53 -80 37 c-75 34 -99 38 -162 29z"/>
<path d="M782 260 c0 -25 4 -56 8 -70 7 -21 8 -19 8 15 0 22 -4 54 -8 70 -7
27 -8 25 -8 -15z"/>
<path d="M1059 245 l-4 -30 -122 -3 -123 -3 0 -54 0 -55 119 0 119 0 12 68 c7
37 10 76 8 87 -4 15 -6 13 -9 -10z"/>
</g>
</svg>
